<svg id="Capa_1" enable-background="new 0 0 511.423 511.423" height="512" viewBox="0 0 511.423 511.423" width="512" xmlns="http://www.w3.org/2000/svg"><g><path d="m399.227 16.188v223.896c0 16.568-13.479 30.047-30.047 30.047s-30.048-13.479-30.048-30.047v-82.617c0-77.901-63.377-141.279-141.278-141.279s-141.28 63.377-141.28 141.278v136.356c-22.634 6.525-39.242 27.411-39.242 52.116 0 12.739 4.425 24.457 11.804 33.724l-29.136 115.573h351.169l-29.137-115.573c1.097-1.377 2.127-2.808 3.088-4.289 14.156 4.618 28.918 6.953 44.06 6.953 78.434 0 142.243-63.81 142.243-142.243v-223.895zm-90.095 141.278v82.617c0 1.314.058 2.614.141 3.908l-49.401 21.664c-1.936-8.316-2.935-16.883-2.935-25.572v-68.55l51.859-22.742c.221 2.863.336 5.756.336 8.675zm-29.538 164.23c13.368 0 24.243 10.875 24.243 24.243 0 13.367-10.875 24.242-24.243 24.242-13.367 0-24.242-10.875-24.242-24.242 0-13.368 10.875-24.243 24.242-24.243zm-66.74-274.494c41.218 5.579 75.343 33.806 89.387 71.705l-47.958 21.032c-6.02-19.341-21.733-34.447-41.429-39.621zm-141.28 274.494c13.367 0 24.242 10.875 24.242 24.243 0 13.367-10.875 24.242-24.242 24.242s-24.242-10.875-24.242-24.242c0-13.368 10.875-24.243 24.242-24.243zm-33.072 143.539 17.013-67.482c5.077 1.577 10.471 2.428 16.06 2.428s10.983-.851 16.061-2.428l17.012 67.482zm85.396-46.361-9.885-39.212c4.518-5.673 7.923-12.265 9.885-19.451 1.962 7.186 5.368 13.778 9.885 19.452zm14.873-112.118c-7.019 6.712-12.242 15.279-14.873 24.911-4.973-18.211-19.215-32.624-37.323-37.844v-20.606h52.196zm0-63.539h-52.197v-85.75c0-2.919.115-5.812.336-8.676l51.86 22.743v71.683zm-45.305-124.31c14.044-37.899 48.169-66.126 89.387-71.705v53.117c-19.695 5.174-35.408 20.279-41.429 39.62zm82.755 202.789c13.368 0 24.243 10.875 24.243 24.243 0 13.367-10.875 24.242-24.243 24.242-13.367 0-24.242-10.875-24.242-24.242 0-13.368 10.875-24.243 24.242-24.243zm-33.073 143.539 17.013-67.482c5.077 1.577 10.471 2.428 16.06 2.428s10.983-.851 16.061-2.428l17.012 67.482zm84.759-48.887-9.248-36.685c4.059-5.097 7.225-10.932 9.249-17.277 2.024 6.345 5.19 12.18 9.248 17.277zm.001-86.856c-6.982-21.893-27.509-37.796-51.687-37.796-2.528 0-5.013.188-7.45.524v-134.753c0-16.037 13.047-29.083 29.083-29.083s29.083 13.046 29.083 29.083v82.617c0 23.125 5.532 45.59 16.11 65.812-6.935 6.334-12.22 14.441-15.139 23.596zm18.613 135.743 17.013-67.482c5.077 1.577 10.471 2.428 16.06 2.428s10.983-.851 16.061-2.428l17.013 67.482zm107.659-113.897c-6.936-.921-13.734-2.491-20.361-4.693.003-.236.018-.469.018-.706 0-29.91-24.333-54.243-54.243-54.243-1.666 0-3.312.087-4.94.235l44.083-19.333c8.082 12.494 20.662 21.82 35.442 25.635v53.105zm30-.017v-53.088c14.781-3.815 27.36-13.141 35.441-25.635l48.14 21.111c-16.776 30.717-47.49 52.77-83.581 57.612zm97.243-111.238c0 8.794-1.019 17.353-2.941 25.57l-49.396-21.662c.083-1.293.141-2.594.141-3.908v-67.12h52.196zm0-97.12h-52.196v-96.775h52.196z"/></g></svg>