<?xml version="1.0" encoding="UTF-8" standalone="no"?>
<svg
   xmlns:dc="http://purl.org/dc/elements/1.1/"
   xmlns:cc="http://creativecommons.org/ns#"
   xmlns:rdf="http://www.w3.org/1999/02/22-rdf-syntax-ns#"
   xmlns:svg="http://www.w3.org/2000/svg"
   xmlns="http://www.w3.org/2000/svg"
   xmlns:sodipodi="http://sodipodi.sourceforge.net/DTD/sodipodi-0.dtd"
   xmlns:inkscape="http://www.inkscape.org/namespaces/inkscape"
   width="210mm"
   height="297mm"
   viewBox="0 0 210 297"
   version="1.1"
   id="svg2354"
   inkscape:version="1.0.1 (3bc2e813f5, 2020-09-07)"
   sodipodi:docname="figurka_bila.svg">
  <style
     id="style12" />
  <defs
     id="defs2348" />
  <sodipodi:namedview
     id="base"
     pagecolor="#ffffff"
     bordercolor="#666666"
     borderopacity="1.0"
     inkscape:pageopacity="0.0"
     inkscape:pageshadow="2"
     inkscape:zoom="0.35"
     inkscape:cx="400"
     inkscape:cy="560"
     inkscape:document-units="mm"
     inkscape:current-layer="layer1"
     inkscape:document-rotation="0"
     showgrid="false"
     showborder="false"
     inkscape:window-width="1481"
     inkscape:window-height="1020"
     inkscape:window-x="190"
     inkscape:window-y="0"
     inkscape:window-maximized="0" />
  <metadata
     id="metadata2351">
    <rdf:RDF>
      <cc:Work
         rdf:about="">
        <dc:format>image/svg+xml</dc:format>
        <dc:type
           rdf:resource="http://purl.org/dc/dcmitype/StillImage" />
        <dc:title></dc:title>
      </cc:Work>
    </rdf:RDF>
  </metadata>
  <g
     inkscape:label="Ebene 1"
     inkscape:groupmode="layer"
     id="layer1">
    <g
       id="g2331"
       transform="translate(-45.447484,-68.389912)"
       style="fill:#ffffff">
      <path
         style="fill:#ffffff;stroke-width:0.591065"
         d="m -34.970043,185.49915 c -14.39378,-1.48765 -26.35749,-7.7921 -28.46947,-15.00239 -5.20196,-17.75946 1.74783,-50.13487 15.2274,-70.936475 5.86025,-9.04351 7.37192,-12.935228 7.37192,-18.978691 0,-3.498879 -0.68567,-5.932053 -5.30153,-18.8129 -4.82751,-13.471474 -5.12682,-18.057602 -1.67416,-25.651966 7.90781,-17.393782 32.22638,-17.817694 40.7635797,-0.710573 3.7428,7.499938 2.79825,18.053047 -2.86398,31.99824 -4.7492597,11.696715 -3.4135197,21.140772 4.50594,31.858318 13.82182,18.705287 23.1836103,64.167437 15.28419,74.222127 -6.75532,8.59843 -26.5589797,13.90412 -44.8438897,12.01431 z"
         id="path56" />
      <path
         id="path2243"
         style="fill:#ffffff;stroke-width:0.264583"
         d="m 229.15555,118.87362 a 71.815475,75.595238 0 0 0 71.55532,69.16943 71.815475,75.595238 0 0 0 71.55583,-69.16943 h -17.09301 a 54.806545,57.452376 0 0 1 -54.46282,51.02687 54.806545,57.452376 0 0 1 -54.46231,-51.02687 z" />
      <path
         id="path2278-8"
         style="fill:#ffffff;stroke-width:0.264583"
         d="m 174.69271,49.703683 a 71.815476,75.595239 0 0 0 -71.55533,69.169937 h 17.09301 a 54.806546,57.452376 0 0 1 54.42613,-51.027367 54.806546,57.452376 0 0 1 0.0362,0 54.806546,57.452376 0 0 1 54.46283,51.027367 h 17.09301 A 71.815476,75.595239 0 0 0 174.69272,49.703683 Z" />
      <path
         id="path2243-3"
         style="fill:#ffffff;stroke-width:0.264583"
         d="m -22.880728,118.87362 a 71.815476,75.595239 0 0 0 71.555324,69.16943 71.815476,75.595239 0 0 0 71.555824,-69.16943 H 103.13741 A 54.806546,57.452376 0 0 1 48.674596,169.90049 54.806546,57.452376 0 0 1 -5.787715,118.87362 Z" />
    </g>
  </g>
</svg>
